Patient4_TMGait_0pt7_02_left_09_EMG.mot
version=1
nRows=17
nColumns=33
inDegrees=no
endheader
time	1LAddLong	2LGlutMax	3LGlutMed	4LIliopsoas	5LSemiMemb	6LBicFemLong	7LRecFem	8LVastMed	9LVastLat	10LGasMed	11LTibAnt	12lTibPost	13LPeroneusLong	14LSol	15LExtDigLong	16LFlexDigLong	17RAddLong	18RGlutMax	19RGlutMed	20RIliopsoas	21RSemiMemb	22RBicFemLong	23RRecFem	24RVastMed	25RVastLat	26RGasMed	27RTibAnt	28RTibPost	29RPeroneusLong	30RSol	31RExtDigLong	32RFlexDigLong
10.295	0.02182	1.4783	0.040436	0.026093	-0.11871	0.074768	0.4512	0.030365	-0.13153	-0.13306	0.12573	-0.003204	-0.046082	-0.098114	0.016479	0.044098	0.095825	-0.99686	-0.19638	0.12772	0.027313	-0.26108	0.70206	0.11047	-0.034943	-0.00946	0.26749	-0.010834	-0.052948	-0.045624	0.000305	-0.002441
10.296	0.018005	1.4417	0.19073	0.043335	-0.072174	0.2388	0.30975	0.037689	-0.15686	-0.13168	0.10788	-0.001831	0.15579	-0.23178	0.040588	0.036621	0.091705	-1.0678	-0.21332	0.060425	0.015259	-0.16892	0.70435	0.11978	-0.053406	-0.005798	-0.25238	-0.011902	-0.24124	0.040741	-0.005341	-0.00885
10.297	0.024567	1.2642	0.28519	-0.000763	-0.026855	0.31525	0.24536	0.028381	-0.18646	-0.11566	0.083008	-0.003662	-0.009155	-0.25238	0.075684	0.017395	0.10178	-1.0136	-0.26977	0.033112	-0.001373	-0.13077	0.78156	0.011597	-0.064392	-0.007172	0.24078	-0.011749	-0.37125	0.04364	-0.002747	-0.001984
10.298	0.009003	1.2556	0.31021	-0.002441	-0.033264	0.31342	0.12024	0.030823	-0.13962	-0.15533	-0.062256	0.001984	-0.015106	-0.19821	0.080566	0.032806	0.10468	-1.021	-0.32333	0.012817	-0.016632	-0.20828	0.83237	-0.046234	-0.062714	-0.00412	-0.20493	-0.011597	-0.20813	0.010071	0.000916	-0.005188
10.299	-0.011749	1.254	0.24277	0.0177	-0.12131	0.40405	-0.070343	0.014191	-0.11688	-0.13336	-0.20309	0.006256	0.026855	-0.18188	0.033417	0.021667	0.11688	-0.90424	-0.37201	0.005493	-0.032959	-0.24948	0.83542	-0.066071	-0.071716	0.001373	-0.19318	-0.013428	-0.13596	-0.021973	-0.005341	-0.012054
10.3	0.007172	1.2543	0.1152	0.007477	-0.15427	0.57999	-0.13458	0.007935	-0.21011	-0.069885	-0.013428	0.000153	0.007324	-0.10193	0.023956	0.017853	0.14496	-0.81024	-0.3215	-0.041504	-0.006714	-0.23895	0.85098	-0.080566	-0.04303	0.016327	-0.30746	-0.011902	0.00824	-0.10742	-0.007782	0.000458
10.301	0.018005	1.1021	0.059052	0.010376	-0.15884	0.62744	-0.19424	0.006409	-0.29282	-0.024109	0.1294	0.011444	0.003967	-0.04364	-0.074005	0.015869	0.12116	-0.73685	-0.36697	-0.1445	0.033569	-0.18555	0.80917	-0.069275	-0.0177	0.019226	-0.32074	-0.007782	0.21408	-0.21194	-0.004272	0.008545
10.302	0.024261	0.94681	0.041962	0.006866	-0.094757	0.68985	-0.3122	0.002136	-0.43335	0.037994	0.065918	0.018463	-0.077209	-0.030212	-0.099792	0.027771	0.031891	-0.70938	-0.40085	-0.17395	0.040131	-0.16144	0.83267	-0.13275	-0.01358	0.021362	0.06424	-0.005341	0.093231	-0.22736	0.001526	0.000305
10.303	0.033722	0.97687	-0.012817	0.00824	0.028992	0.62622	-0.47577	0.008392	-0.37201	0.040131	-0.13825	0.02182	-0.052185	-0.014496	-0.03067	0.018158	0.006561	-0.59952	-0.3865	-0.08606	0.026703	-0.17395	0.89569	-0.077667	-0.006866	0.007019	0.51437	-0.010681	-0.2684	-0.24292	0.000305	-0.012207
10.304	0.036011	1.0408	-0.17685	0.010681	0.034485	0.42343	-0.6485	-0.006104	-0.29007	0.049591	-0.18143	0.032349	-0.017242	-0.049133	-0.059204	0.012817	-0.01236	-0.54001	-0.65933	-0.011444	0.007019	-0.049896	0.93506	0.003357	0.008698	0.013123	0.48126	-0.00946	-0.24353	-0.30945	0.00412	-0.014954
10.305	0.02655	1.1623	-0.22766	-0.015869	0.032349	-0.044861	-0.72494	-0.000763	-0.15488	-0.009918	-0.1384	0.040588	-0.029755	-0.057831	0.1178	0.029144	-0.016327	-0.38986	-0.46066	-0.034485	0.005035	0.018768	0.93353	0.040436	0.010223	0.014954	-0.37628	-0.007019	0.023499	-0.14114	-0.010986	-0.002289
10.306	0.021057	1.259	-0.25085	-0.026703	0.08194	-0.24262	-0.58136	0.011902	0.042572	-0.12085	-0.081635	0.034332	-0.003357	-0.056305	0.2948	0.014954	-0.030518	-0.34805	-0.23941	-0.11475	0.007782	-0.058441	0.89432	0.036774	0.0177	0.009918	-1.1465	-0.010681	0.13138	0.099335	-0.00824	-0.004883
10.307	0.017548	1.2581	-0.14435	-0.018768	0.11063	-0.41351	-0.53314	0.024719	0.11932	0.008392	-0.047455	0.037537	0.41061	-0.18204	-0.051422	0.024109	-0.069885	-0.16556	-0.22125	-0.24139	0.019684	-0.019226	0.79773	0.088348	0.018311	0.000916	-1.3052	-0.00412	0.3479	0.15915	-0.001678	-0.016022
10.308	-0.002899	1.2335	-0.1976	-0.024414	0.060883	-0.15243	-0.57495	0.019989	0.1741	0.19302	-0.024872	0.041962	0.32776	-0.23682	-0.072937	-0.036774	-0.05722	-0.13458	-0.53543	-0.16785	0.057373	0.10071	0.69046	0.10773	0.03006	0.001526	-0.76614	-0.006866	0.30167	0.20187	-0.003204	-0.003204
10.309	0.007172	1.241	-0.2449	0.002747	0.011749	-0.093536	-0.58609	0.022736	0.32105	0.25085	-0.015564	0.037231	-0.071106	-0.054321	-0.0737	0.093231	-0.045471	-0.017395	-0.34241	0.006256	0.088043	0.19287	0.68787	0.086212	0.001221	0.001831	-0.39841	-0.010986	0.18875	0.21423	0.000153	-0.01297
10.31	0.009918	1.2473	-0.26855	-0.039978	-0.020752	-0.34973	-0.68771	0.023499	0.29007	0.27725	-0.001068	0.036926	-0.70664	0.071411	0.054626	0.018921	-0.0383	0.13016	-0.30456	0.15335	0.063171	0.22522	0.63248	0.049286	0.030823	0.000458	-0.34302	-0.009003	0.10101	0.1857	-0.007935	-0.010986
10.311	0.009308	1.2589	-0.12344	-0.023499	-0.01297	-0.39749	-0.67413	-0.005341	0.033264	0.33432	0.028687	0.027771	-0.27985	0.019226	-0.0354	-0.1648	-0.081177	0.27588	-0.49576	0.12695	0.097351	0.26032	0.66956	0.041809	0.029907	0.000763	-0.24994	-0.009155	0.088043	0.13184	-0.002747	-0.012207
